{"title":"Non Stop 2014 DVD9rip English Klam","uid":10226986,"size":1516525915,"categoryP":"video","categoryS":"movies","magnet":"?xt=urn:btih:5ff7aaa09e8185d68210c54a102eb7e216bc8625&amp;dn=Non+Stop+2014+DVD9rip+English+Klam&amp;tr=udp%3A%2F%2Ftracker.openbittorrent.com%3A80&amp;tr=udp%3A%2F%2Fopen.demonii.com%3A1337&amp;tr=udp%3A%2F%2Ftracker.coppersurfer.tk%3A6969&amp;tr=udp%3A%2F%2Fexodus.desync.com%3A6969","seeders":4,"leechers":0,"uploader":"Klambake","files":-1,"time":1401099779,"description":"With: Liam Neeson, Michelle Dockery and Julianne Moore\n\nBill Marks (Liam Neeson) is een uitgebluste veteraan van de Air Marshals service. Hij beschouwt zijn job niet als een taak die levens kan redden, maar als een kantoorbaantje in de lucht. De vlucht van vandaag zal echter geen routine blijken. Kort na het opstijgen van een transatlantische vlucht van New York naar Londen krijgt hij een reeks mysterieuze tekstberichten die hem bevelen ervoor te zorgen dat de regering het bedrag van 150 miljoen dollar overmaakt op een geheime bankrekening. Indien dit niet gebeurt zal elke twintig minuten een passagier sterven.\n\nAn air marshal springs into action during a transatlantic flight after receiving a series of text messages that put his fellow passengers at risk unless the airline transfers $150 million into an off-shore account.\n &lt;a href=&quot;\nhttp://www.imdb.com/title/tt2024469&quot; rel=&quot;nofollow&quot; target=&quot;_NEW&quot;&gt;\nhttp://www.imdb.com/title/tt2024469&lt;/a&gt;\t\n\n--------------------- Dutch Friends 4ever ---------------------\n---------------------------------------------------------------\n- Bezoek ook eens mijn vrienden op: &lt;a href=&quot; http://www.Film-Test.nl&quot; rel=&quot;nofollow&quot; target=&quot;_NEW&quot;&gt; http://www.Film-Test.nl&lt;/a&gt; --\n----- voor mijn Nederlandse Sync. ondertitels ---- en meer ----\n------- http://www.Film-Test.nl ---- Over Films en meer -------\n---------------------------------------------------------------\n\nGeneral:\n\nComplete name                            : Non StopNon Stop.avi\nFormat                                   : AVI\nFormat/Info                              : Audio Video Interleave\nFile size                                : 1.41 GiB\nDuration                                 : 1h 46mn\nOverall bit rate                         : 1 896 Kbps\n\nVideo:\n\nFormat                                   : MPEG-4 Visual\nFormat profile                           : Simple@L3\nFormat settings, BVOP                    : No\nFormat settings, QPel                    : No\nFormat settings, GMC                     : No warppoints\nFormat settings, Matrix                  : Default (H.263)\nCodec ID                                 : XVID\nCodec ID/Hint                            : XviD\nDuration                                 : 1h 46mn\nBit rate                                 : 1 437 Kbps\nWidth                                    : 720 pixels\nHeight                                   : 304 pixels\nDisplay aspect ratio                     : 2.35:1\nFrame rate                               : 25.000 fps\nColor space                              : YUV\nChroma subsampling                       : 4:2:0\nBit depth                                : 8 bits\nScan type                                : Progressive\nCompression mode                         : Lossy\nBits/(Pixel*Frame)                       : 0.263\nStream size                              : 1.07 GiB (76%)\nWriting library                          : XviD 1.1.2 (UTC 2006-11-01)\n\nAudio:\n\nFormat                                   : AC-3\nFormat/Info                              : Audio Coding 3\nMode extension                           : CM (complete main)\nFormat settings, Endianness              : Big\nCodec ID                                 : 2000\nDuration                                 : 1h 46mn\nSource duration                          : 1h 46mn\nBit rate mode                            : Constant\nBit rate                                 : 448 Kbps\nChannel(s)                               : 6 channels\nChannel positions                        : Front: L C R, Side: L R, LFE\nSampling rate                            : 48.0 KHz\nBit depth                                : 16 bits\nCompression mode                         : Lossy\nStream size                              : 342 MiB (24%)\nAlignment                                : Aligned on interleaves\nInterleave, duration                     : 32 ms (0.80 video frame)\nInterleave, preload duration             : 160 ms\n\n\n","torrent":{"xt":"urn:btih:5ff7aaa09e8185d68210c54a102eb7e216bc8625","amp;dn":"Non+Stop+2014+DVD9rip+English+Klam","amp;tr":["udp%3A%2F%2Ftracker.openbittorrent.com%3A80","udp%3A%2F%2Fopen.demonii.com%3A1337","udp%3A%2F%2Ftracker.coppersurfer.tk%3A6969","udp%3A%2F%2Fexodus.desync.com%3A6969"],"infoHash":"5ff7aaa09e8185d68210c54a102eb7e216bc8625","infoHashBuffer":{"type":"Buffer","data":[95,247,170,160,158,129,133,214,130,16,197,74,16,46,183,226,22,188,134,37]},"announce":[],"urlList":[]}}